<svg xmlns="http://www.w3.org/2000/svg" viewBox="0 0 1279 639" width="1279" height="639"><defs></defs><g>
<rect fill="#ffffff" x="0" y="0" width="1280" height="640"/>
<g>
	<g>
		<g>
			<g transform="matrix(1,0,0,1,-32.919729565,-4.309155817)">
				<g transform="matrix(0.99999345,-0.003619333,0.003619333,0.99999345,-71.233506079,5.795252589)">
					<path d="M627.728442,251.636193C664.658187,251.636193 694.656248,282.277892 694.656248,320 C694.656248,357.722108 664.658187,388.363807 627.728442,388.363807 C590.798698,388.363807 560.800636,357.722108 560.800636,320 C560.800636,282.277892 590.798698,251.636193 627.728442,251.636193 Z" transform="matrix(1,0,0,1,0,0)" fill="#fefefe" stroke="#000000" stroke-width="2"/>
				</g>
				<g transform="matrix(0.99999345,-0.003619333,0.003619333,0.99999345,-71.233506079,5.795252589)">
					<path d="M627.728442,261.942534C659.090759,261.942534 684.566395,287.964774 684.566395,320 C684.566395,352.035226 659.090759,378.057466 627.728442,378.057466 C596.366125,378.057466 570.89049,352.035226 570.89049,320 C570.89049,287.964774 596.366125,261.942534 627.728442,261.942534 Z" transform="matrix(1,0,0,1,0,0)" fill="#9c51b6" stroke="#000000" stroke-width="2"/>
				</g>
				<g transform="matrix(0.99999345,-0.003619333,0.003619333,0.99999345,-71.233506079,5.795252589)">
					<path d="M627.728442,265.680843C657.071346,265.680843 680.90661,290.027516 680.90661,320 C680.90661,349.972484 657.071346,374.319157 627.728442,374.319157 C598.385539,374.319157 574.550275,349.972484 574.550275,320 C574.550275,290.027516 598.385539,265.680843 627.728442,265.680843 Z" fill="#713187"/>
				</g>
				<g transform="matrix(0.99999345,-0.003619333,0.003619333,0.99999345,-71.233506079,5.795252589)">
					<path d="M627.728442,269.860577C654.813477,269.860577 676.814673,292.333829 676.814673,320 C676.814673,347.666171 654.813477,370.139423 627.728442,370.139423 C600.643407,370.139423 578.642211,347.666171 578.642211,320 C578.642211,292.333829 600.643407,269.860577 627.728442,269.860577 Z" transform="matrix(1,0,0,1,0,0)" fill="#fefefe" stroke="#000000" stroke-width="2"/>
				</g>
				<g transform="matrix(0.99999345,-0.003619333,0.003619333,0.99999345,-71.233506079,5.795252589)">
					<path d="M627.728442,398.473086C627.728442,398.473086 623.68182,368.499034 623.68182,368.499034 C623.68182,368.499034 625.227492,320 625.227492,320 C625.227492,320 630.229393,320 630.229393,320 C630.229393,320 631.775065,368.499034 631.775065,368.499034 C631.775065,368.499034 627.728442,398.473086 627.728442,398.473086 Z" transform="matrix(1,0,0,1,0,0)" fill="#000000" stroke="#000000" stroke-width="2"/>
				</g>
				<g transform="matrix(0.99999345,-0.003619333,0.003619333,0.99999345,-71.233506079,5.795252589)">
					<path d="M627.728442,241.526914C627.728442,241.526914 631.775065,271.500966 631.775065,271.500966 C631.775065,271.500966 630.229393,320 630.229393,320 C630.229393,320 625.227492,320 625.227492,320 C625.227492,320 623.68182,271.500966 623.68182,271.500966 C623.68182,271.500966 627.728442,241.526914 627.728442,241.526914 Z" transform="matrix(1,0,0,1,0,0)" fill="#000000" stroke="#000000" stroke-width="2"/>
				</g>
				<g transform="matrix(0.99999345,-0.003619333,0.003619333,0.99999345,-71.233506079,5.795252589)">
					<path d="M706.435042,320C706.435042,320 676.371796,324.034617 676.371796,324.034617 C676.371796,324.034617 627.728442,322.49353 627.728442,322.49353 C627.728442,322.49353 627.728442,317.50647 627.728442,317.50647 C627.728442,317.50647 676.371796,315.965383 676.371796,315.965383 C676.371796,315.965383 706.435042,320 706.435042,320 Z" transform="matrix(1,0,0,1,0,0)" fill="#000000" stroke="#000000" stroke-width="2"/>
				</g>
				<g transform="matrix(0.99999345,-0.003619333,0.003619333,0.99999345,-71.233506079,5.795252589)">
					<path d="M549.021842,320C549.021842,320 579.085088,324.034617 579.085088,324.034617 C579.085088,324.034617 627.728442,322.49353 627.728442,322.49353 C627.728442,322.49353 627.728442,317.50647 627.728442,317.50647 C627.728442,317.50647 579.085088,315.965383 579.085088,315.965383 C579.085088,315.965383 549.021842,320 549.021842,320 Z" transform="matrix(1,0,0,1,0,0)" fill="#000000" stroke="#000000" stroke-width="2"/>
				</g>
				<g transform="matrix(0.99999345,-0.003619333,0.003619333,0.99999345,-71.233506079,5.795252589)">
					<path d="M572.074472,375.488851C572.074472,375.488851 590.471002,351.441091 590.471002,351.441091 C590.471002,351.441091 625.960003,318.236808 625.960003,318.236808 C625.960003,318.236808 629.496881,321.763192 629.496881,321.763192 C629.496881,321.763192 596.193791,357.146901 596.193791,357.146901 C596.193791,357.146901 572.074472,375.488851 572.074472,375.488851 Z" transform="matrix(1,0,0,1,0,0)" fill="#fefefe" stroke="#000000" stroke-width="2"/>
				</g>
				<g transform="matrix(0.99999345,-0.003619333,0.003619333,0.99999345,-71.233506079,5.795252589)">
					<path d="M683.382413,264.511149C683.382413,264.511149 664.985882,288.558909 664.985882,288.558909 C664.985882,288.558909 629.496881,321.763192 629.496881,321.763192 C629.496881,321.763192 625.960003,318.236808 625.960003,318.236808 C625.960003,318.236808 659.263093,282.853099 659.263093,282.853099 C659.263093,282.853099 683.382413,264.511149 683.382413,264.511149 Z" transform="matrix(1,0,0,1,0,0)" fill="#fefefe" stroke="#000000" stroke-width="2"/>
				</g>
				<g transform="matrix(0.99999345,-0.003619333,0.003619333,0.99999345,-71.233506079,5.795252589)">
					<path d="M683.382413,375.488851C683.382413,375.488851 659.263093,357.146901 659.263093,357.146901 C659.263093,357.146901 625.960003,321.763192 625.960003,321.763192 C625.960003,321.763192 629.496881,318.236808 629.496881,318.236808 C629.496881,318.236808 664.985882,351.441091 664.985882,351.441091 C664.985882,351.441091 683.382413,375.488851 683.382413,375.488851 Z" fill="#fefefe" stroke="#000000" stroke-width="2"/>
				</g>
				<g transform="matrix(0.99999345,-0.003619333,0.003619333,0.99999345,-71.233506079,5.795252589)">
					<path d="M572.074472,264.511149C572.074472,264.511149 590.471002,288.558909 590.471002,288.558909 C590.471002,288.558909 625.960003,321.763192 625.960003,321.763192 C625.960003,321.763192 629.496881,318.236808 629.496881,318.236808 C629.496881,318.236808 596.193791,282.853099 596.193791,282.853099 C596.193791,282.853099 572.074472,264.511149 572.074472,264.511149 Z" transform="matrix(1,0,0,1,0,0)" fill="#fefefe" stroke="#000000" stroke-width="2"/>
				</g>
				<g transform="matrix(0.99999345,-0.003619333,0.003619333,0.99999345,-71.233506079,5.795252589)">
					<path d="M627.728442,250.360585C627.728442,250.360585 631.775065,276.960475 631.775065,276.960475 C631.775065,276.960475 630.229393,320 630.229393,320 C630.229393,320 625.227492,320 625.227492,320 C625.227492,320 623.68182,276.960475 623.68182,276.960475 C623.68182,276.960475 627.728442,250.360585 627.728442,250.360585 Z" transform="matrix(1,0,0,1,0,0)" fill="#000000" stroke="#000000" stroke-width="2"/>
				</g>
				<g transform="matrix(0.99999345,-0.003619333,0.003619333,0.99999345,-71.233506079,5.795252589)">
					<path d="M627.728442,307.465144C634.499701,307.465144 640,313.083457 640,320 C640,326.916543 634.499701,332.534856 627.728442,332.534856 C620.957184,332.534856 615.456885,326.916543 615.456885,320 C615.456885,313.083457 620.957184,307.465144 627.728442,307.465144 Z" fill="#9c51b6" stroke="#000000" stroke-width="2"/>
				</g>
				<g transform="matrix(0.99999345,-0.003619333,0.003619333,0.99999345,-71.233506079,5.795252589)">
					<path d="M568.698492,322.017308C568.698492,322.017308 583.730115,324.034617 583.730115,324.034617 C583.730115,324.034617 608.051792,323.264074 608.051792,323.264074 C608.051792,323.264074 608.051792,320.770543 608.051792,320.770543 C608.051792,320.770543 583.730115,320 583.730115,320 C583.730115,320 568.698492,322.017308 568.698492,322.017308 Z" transform="matrix(1,0,0,1,0,0)" fill="#000000" stroke="#000000" stroke-width="2"/>
				</g>
				<g transform="matrix(0.99999345,-0.003619333,0.003619333,0.99999345,-71.233506079,5.795252589)">
					<path d="M624.387555,240.350292C624.387555,240.350292 624.387555,233.927184 624.387555,233.927184 C624.387555,233.927184 626.310078,233.927184 626.310078,233.927184 C626.310078,233.927184 629.980348,238.285016 629.980348,238.285016 C629.980348,238.285016 630.007236,238.285016 630.007236,238.285016 C630.007236,238.285016 629.913127,237.840339 629.913127,237.840339 C629.913127,237.840339 629.913127,233.927184 629.913127,233.927184 C629.913127,233.927184 631.069329,233.927184 631.069329,233.927184 C631.069329,233.927184 631.069329,240.350292 631.069329,240.350292 C631.069329,240.350292 629.617354,240.350292 629.617354,240.350292 C629.617354,240.350292 625.463092,235.52802 625.463092,235.52802 C625.463092,235.52802 625.436204,235.52802 625.436204,235.52802 C625.436204,235.52802 625.543758,236.101159 625.543758,236.101159 C625.543758,236.101159 625.543758,240.350292 625.543758,240.350292 C625.543758,240.350292 624.387555,240.350292 624.387555,240.350292 C624.387555,240.350292 624.387555,240.350292 624.387555,240.350292 Z" fill="#000000"/>
				</g>
				<g transform="matrix(0.99999345,-0.003619333,0.003619333,0.99999345,-71.233506079,5.795252589)">
					<path d="M626.034471,407.487065Q625.442926,407.314135 625.153875,407.116501 Q624.864825,406.918867 624.864825,406.87934 Q625.375705,406.306201 625.375705,406.306201 Q625.375705,406.325964 625.637867,406.489012 Q625.900029,406.652061 626.35041,406.790404 Q626.800792,406.928748 627.392337,406.928748 Q628.024215,406.928748 628.373765,406.681706 Q628.723314,406.434663 628.723314,406.029513 Q628.723314,405.772589 628.535095,405.579896 Q628.346876,405.387202 628.07127,405.253799 Q627.795663,405.120396 627.298227,404.912881 Q626.652905,404.665838 626.236135,404.438559 Q625.819364,404.21128 625.523591,403.845657 Q625.227819,403.480033 625.227819,402.946421 Q625.227819,402.363401 625.590812,401.928606 Q625.953806,401.493811 626.599128,401.261591 Q627.244451,401.029371 628.064548,401.029371 Q628.602316,401.029371 629.079586,401.128188 Q629.556855,401.227005 629.886239,401.350526 Q630.215622,401.474048 630.215622,401.483929 Q630.000514,402.155885 630.000514,402.155885 Q629.933293,402.12624 629.671131,402.022482 Q629.408969,401.918724 629.005643,401.819907 Q628.602316,401.72109 628.185546,401.72109 Q627.674665,401.72109 627.365449,401.933547 Q627.056232,402.146003 627.056232,402.521508 Q627.056232,402.93654 627.419225,403.183582 Q627.782219,403.430625 628.535095,403.727076 Q629.207306,403.993882 629.610632,404.21128 Q630.013959,404.428677 630.303009,404.799241 Q630.59206,405.169805 630.59206,405.72318 Q630.59206,406.325964 630.182011,406.760759 Q629.771963,407.195554 629.072864,407.427774 Q628.373765,407.659994 627.513335,407.659994 Q626.626017,407.659994 626.034471,407.487065 Q626.034471,407.487065 626.034471,407.487065 Z" fill="#000000"/>
				</g>
				<g transform="matrix(0.99999345,-0.003619333,0.003619333,0.99999345,-71.233506079,5.795252589)">
					<path d="M709.030939,323.211554C709.030939,323.211554 709.030939,316.788446 709.030939,316.788446 C709.030939,316.788446 714.274182,316.788446 714.274182,316.788446 C714.274182,316.788446 714.274182,317.499929 714.274182,317.499929 C714.274182,317.499929 710.886241,317.499929 710.886241,317.499929 C710.886241,317.499929 710.886241,319.614614 710.886241,319.614614 C710.886241,319.614614 713.870856,319.614614 713.870856,319.614614 C713.870856,319.614614 713.870856,320.306333 713.870856,320.306333 C713.870856,320.306333 710.886241,320.306333 710.886241,320.306333 C710.886241,320.306333 710.886241,322.500071 710.886241,322.500071 C710.886241,322.500071 714.462401,322.500071 714.462401,322.500071 C714.462401,322.500071 714.462401,323.211554 714.462401,323.211554 C714.462401,323.211554 709.030939,323.211554 709.030939,323.211554 C709.030939,323.211554 709.030939,323.211554 709.030939,323.211554 Z" fill="#000000"/>
				</g>
				<g transform="matrix(0.99999345,-0.003619333,0.003619333,0.99999345,-71.233506079,5.795252589)">
					<path d="M540.502335,323.211554C540.502335,323.211554 538.683242,316.788446 538.683242,316.788446 C538.683242,316.788446 540.228945,316.788446 540.228945,316.788446 C540.228945,316.788446 541.490743,321.650245 541.490743,321.650245 C541.490743,321.650245 541.511773,321.650245 541.511773,321.650245 C541.511773,321.650245 542.910266,316.788446 542.910266,316.788446 C542.910266,316.788446 544.077429,316.788446 544.077429,316.788446 C544.077429,316.788446 545.517981,321.620599 545.517981,321.620599 C545.517981,321.620599 545.549526,321.620599 545.549526,321.620599 C545.549526,321.620599 546.73772,316.788446 546.73772,316.788446 C546.73772,316.788446 547.663038,316.788446 547.663038,316.788446 C547.663038,316.788446 545.875491,323.211554 545.875491,323.211554 C545.875491,323.211554 544.634723,323.211554 544.634723,323.211554 C544.634723,323.211554 543.204685,318.468336 543.204685,318.468336 C543.204685,318.468336 543.183655,318.468336 543.183655,318.468336 C543.183655,318.468336 541.764133,323.211554 541.764133,323.211554 C541.764133,323.211554 540.502335,323.211554 540.502335,323.211554 C540.502335,323.211554 540.502335,323.211554 540.502335,323.211554 Z" fill="#000000"/>
				</g>
				<g transform="matrix(0.99999345,-0.003619333,0.003619333,0.99999345,-71.233506079,5.795252589)">
					<path d="M627.728442,310.695563C632.717574,310.695563 636.770249,314.865954 636.770249,320 C636.770249,325.134046 632.717574,329.304437 627.728442,329.304437 C622.739311,329.304437 618.686635,325.134046 618.686635,320 C618.686635,314.865954 622.739311,310.695563 627.728442,310.695563 Z" fill="#713187"/>
				</g>
			</g>
			<g transform="matrix(1,0,0,1,-32.919729565,-4.309155817)">
				<path d="M260.434105,363.146539Q245.033888,363.146539 236.627348,353.397777 Q228.220808,343.649016 228.220808,326.977222 Q228.220808,315.674311 232.176827,307.26777 Q236.132846,298.86123 243.338452,294.269422 Q250.544058,289.677614 260.434105,289.677614 Q266.368134,289.677614 271.383801,291.302408 Q276.399468,292.927201 279.366482,294.481352 Q282.333496,296.035502 282.333496,296.035502 Q281.061919,301.96953 281.061919,301.96953 Q281.061919,301.96953 278.165548,300.486023 Q275.269177,299.002516 270.748012,297.589652 Q266.226847,296.176788 261.42311,296.176788 Q250.967917,296.176788 245.104532,303.806254 Q239.241146,311.435719 239.241146,326.694649 Q239.241146,341.95358 245.387104,349.229829 Q251.533062,356.506078 262.129542,356.506078 Q267.074566,356.506078 270.818655,354.951928 Q274.562745,353.397777 277.035256,351.349125 Q279.507768,349.300472 280.779346,347.746322 Q282.050923,346.192171 282.050923,346.192171 Q285.865656,350.430763 285.865656,350.430763 Q285.865656,350.430763 284.452792,352.33813 Q283.039928,354.245496 280.002271,356.788651 Q276.964613,359.331806 272.090233,361.239172 Q267.215852,363.146539 260.434105,363.146539 Q260.434105,363.146539 260.434105,363.146539 ZM293.071262,361.733675C293.071262,361.733675 317.655094,291.090478 317.655094,291.090478 C317.655094,291.090478 329.664438,291.090478 329.664438,291.090478 C329.664438,291.090478 353.541838,361.733675 353.541838,361.733675 C353.541838,361.733675 342.945359,361.733675 342.945359,361.733675 C342.945359,361.733675 335.598466,340.682002 335.598466,340.682002 C335.598466,340.682002 307.623761,340.682002 307.623761,340.682002 C307.623761,340.682002 300.276868,361.733675 300.276868,361.733675 C300.276868,361.733675 293.071262,361.733675 293.071262,361.733675 C293.071262,361.733675 293.071262,361.733675 293.071262,361.733675 ZM309.460484,335.313119C309.460484,335.313119 333.761743,335.313119 333.761743,335.313119 C333.761743,335.313119 321.893686,298.578657 321.893686,298.578657 C321.893686,298.578657 309.460484,335.313119 309.460484,335.313119 C309.460484,335.313119 309.460484,335.313119 309.460484,335.313119 ZM368.942055,361.733675C368.942055,361.733675 368.942055,291.090478 368.942055,291.090478 C368.942055,291.090478 387.874432,291.090478 387.874432,291.090478 Q399.31863,291.090478 405.74716,296.741934 Q412.175691,302.39339 412.175691,312.848583 Q412.175691,321.18448 408.502245,326.27079 Q404.828799,331.3571 399.459916,333.758969 Q416.979429,361.733675 416.979429,361.733675 C416.979429,361.733675 405.252658,361.733675 405.252658,361.733675 C405.252658,361.733675 389.569868,335.878265 389.569868,335.878265 C389.569868,335.878265 379.114675,335.878265 379.114675,335.878265 C379.114675,335.878265 379.114675,361.733675 379.114675,361.733675 C379.114675,361.733675 368.942055,361.733675 368.942055,361.733675 C368.942055,361.733675 368.942055,361.733675 368.942055,361.733675 ZM379.114675,329.944236C379.114675,329.944236 387.450573,329.944236 387.450573,329.944236 Q394.091033,329.944236 397.835122,326.27079 Q401.579212,322.597344 401.579212,313.131155 Q401.579212,304.653972 397.835122,300.768596 Q394.091033,296.88322 386.602854,296.88322 Q379.114675,296.88322 379.114675,296.88322 C379.114675,296.88322 379.114675,329.944236 379.114675,329.944236 C379.114675,329.944236 379.114675,329.944236 379.114675,329.944236 ZM445.095421,361.733675C445.095421,361.733675 445.095421,297.307079 445.095421,297.307079 C445.095421,297.307079 424.326321,297.307079 424.326321,297.307079 C424.326321,297.307079 424.326321,291.090478 424.326321,291.090478 C424.326321,291.090478 476.037141,291.090478 476.037141,291.090478 C476.037141,291.090478 476.037141,297.307079 476.037141,297.307079 C476.037141,297.307079 455.409328,297.307079 455.409328,297.307079 C455.409328,297.307079 455.409328,361.733675 455.409328,361.733675 C455.409328,361.733675 445.095421,361.733675 445.095421,361.733675 C445.095421,361.733675 445.095421,361.733675 445.095421,361.733675 ZM679.913406,363.146539Q665.360908,363.146539 657.307583,353.397777 Q649.254259,343.649016 649.254259,326.553363 Q649.254259,309.316423 657.943372,299.497019 Q666.632485,289.677614 682.597847,289.677614 Q688.531876,289.677614 693.547543,291.302408 Q698.56321,292.927201 701.600867,294.481352 Q704.638525,296.035502 704.638525,296.035502 Q703.084374,301.96953 703.084374,301.96953 Q703.084374,301.96953 700.188003,300.486023 Q697.291632,299.002516 692.841111,297.589652 Q688.39059,296.176788 683.586852,296.176788 Q671.436222,296.176788 665.85541,303.806254 Q660.274597,311.435719 660.274597,326.553363 Q660.274597,341.95358 666.06734,349.229829 Q671.860082,356.506078 681.467556,356.506078 Q686.836439,356.506078 690.015383,354.669355 Q693.194327,352.832632 694.81912,350.501406 Q696.443914,348.170181 697.00906,346.333458 Q697.574205,344.496735 697.574205,344.496735 Q697.574205,330.226809 697.574205,330.226809 C697.574205,330.226809 683.445566,330.226809 683.445566,330.226809 C683.445566,330.226809 683.445566,324.575353 683.445566,324.575353 C683.445566,324.575353 706.192675,324.575353 706.192675,324.575353 C706.192675,324.575353 706.192675,361.733675 706.192675,361.733675 C706.192675,361.733675 701.247651,361.733675 701.247651,361.733675 C701.247651,361.733675 698.704496,354.669355 698.704496,354.669355 Q696.443914,357.918942 692.064036,360.53274 Q687.684158,363.146539 679.913406,363.146539 Q679.913406,363.146539 679.913406,363.146539 ZM727.52692,361.733675C727.52692,361.733675 727.52692,291.090478 727.52692,291.090478 C727.52692,291.090478 746.459297,291.090478 746.459297,291.090478 Q757.903495,291.090478 764.332026,296.741934 Q770.760557,302.39339 770.760557,312.848583 Q770.760557,321.18448 767.08711,326.27079 Q763.413664,331.3571 758.044781,333.758969 Q775.564294,361.733675 775.564294,361.733675 C775.564294,361.733675 763.837523,361.733675 763.837523,361.733675 C763.837523,361.733675 748.154734,335.878265 748.154734,335.878265 C748.154734,335.878265 737.699541,335.878265 737.699541,335.878265 C737.699541,335.878265 737.699541,361.733675 737.699541,361.733675 C737.699541,361.733675 727.52692,361.733675 727.52692,361.733675 C727.52692,361.733675 727.52692,361.733675 727.52692,361.733675 ZM737.699541,329.944236C737.699541,329.944236 746.035438,329.944236 746.035438,329.944236 Q752.675898,329.944236 756.419988,326.27079 Q760.164077,322.597344 760.164077,313.131155 Q760.164077,304.653972 756.419988,300.768596 Q752.675898,296.88322 745.18772,296.88322 Q737.699541,296.88322 737.699541,296.88322 C737.699541,296.88322 737.699541,329.944236 737.699541,329.944236 C737.699541,329.944236 737.699541,329.944236 737.699541,329.944236 ZM784.465337,361.733675C784.465337,361.733675 809.049169,291.090478 809.049169,291.090478 C809.049169,291.090478 821.058513,291.090478 821.058513,291.090478 C821.058513,291.090478 844.935913,361.733675 844.935913,361.733675 C844.935913,361.733675 834.339434,361.733675 834.339434,361.733675 C834.339434,361.733675 826.992541,340.682002 826.992541,340.682002 C826.992541,340.682002 799.017835,340.682002 799.017835,340.682002 C799.017835,340.682002 791.670943,361.733675 791.670943,361.733675 C791.670943,361.733675 784.465337,361.733675 784.465337,361.733675 C784.465337,361.733675 784.465337,361.733675 784.465337,361.733675 ZM800.854558,335.313119C800.854558,335.313119 825.155818,335.313119 825.155818,335.313119 C825.155818,335.313119 813.287761,298.578657 813.287761,298.578657 C813.287761,298.578657 800.854558,335.313119 800.854558,335.313119 C800.854558,335.313119 800.854558,335.313119 800.854558,335.313119 ZM860.33613,361.733675C860.33613,361.733675 860.33613,291.090478 860.33613,291.090478 C860.33613,291.090478 879.268507,291.090478 879.268507,291.090478 Q890.571418,291.090478 897.070592,296.671291 Q903.569766,302.252103 903.569766,313.837587 Q903.569766,322.73863 899.89632,327.966227 Q896.222874,333.193823 890.712704,335.454406 Q885.202535,337.714988 879.409793,337.714988 Q870.50875,337.714988 870.50875,337.714988 C870.50875,337.714988 870.50875,361.733675 870.50875,361.733675 C870.50875,361.733675 860.33613,361.733675 860.33613,361.733675 C860.33613,361.733675 860.33613,361.733675 860.33613,361.733675 ZM870.50875,332.063532C870.50875,332.063532 877.996929,332.063532 877.996929,332.063532 Q882.094234,332.063532 885.414465,330.509382 Q888.734695,328.955231 890.712704,325.069856 Q892.690714,321.18448 892.690714,314.261447 Q892.690714,304.795258 888.805338,300.839239 Q884.919962,296.88322 877.996929,296.88322 Q870.50875,296.88322 870.50875,296.88322 C870.50875,296.88322 870.50875,332.063532 870.50875,332.063532 C870.50875,332.063532 870.50875,332.063532 870.50875,332.063532 ZM920.100274,361.733675C920.100274,361.733675 920.100274,291.090478 920.100274,291.090478 C920.100274,291.090478 930.272894,291.090478 930.272894,291.090478 C930.272894,291.090478 930.272894,322.314771 930.272894,322.314771 C930.272894,322.314771 961.921046,322.314771 961.921046,322.314771 C961.921046,322.314771 961.921046,291.090478 961.921046,291.090478 C961.921046,291.090478 972.234953,291.090478 972.234953,291.090478 C972.234953,291.090478 972.234953,361.733675 972.234953,361.733675 C972.234953,361.733675 961.921046,361.733675 961.921046,361.733675 C961.921046,361.733675 961.921046,328.390086 961.921046,328.390086 C961.921046,328.390086 930.272894,328.390086 930.272894,328.390086 C930.272894,328.390086 930.272894,361.733675 930.272894,361.733675 C930.272894,361.733675 920.100274,361.733675 920.100274,361.733675 C920.100274,361.733675 920.100274,361.733675 920.100274,361.733675 ZM995.405922,361.733675C995.405922,361.733675 995.405922,291.090478 995.405922,291.090478 C995.405922,291.090478 1036.096403,291.090478 1036.096403,291.090478 C1036.096403,291.090478 1036.096403,297.307079 1036.096403,297.307079 C1036.096403,297.307079 1005.578542,297.307079 1005.578542,297.307079 C1005.578542,297.307079 1005.578542,323.021203 1005.578542,323.021203 C1005.578542,323.021203 1033.270675,323.021203 1033.270675,323.021203 C1033.270675,323.021203 1033.270675,329.096518 1033.270675,329.096518 C1033.270675,329.096518 1005.578542,329.096518 1005.578542,329.096518 C1005.578542,329.096518 1005.578542,355.517073 1005.578542,355.517073 C1005.578542,355.517073 1038.215699,355.517073 1038.215699,355.517073 C1038.215699,355.517073 1038.215699,361.733675 1038.215699,361.733675 C1038.215699,361.733675 995.405922,361.733675 995.405922,361.733675 C995.405922,361.733675 995.405922,361.733675 995.405922,361.733675 ZM1056.017784,361.733675C1056.017784,361.733675 1056.017784,291.090478 1056.017784,291.090478 C1056.017784,291.090478 1074.950161,291.090478 1074.950161,291.090478 Q1086.394359,291.090478 1092.82289,296.741934 Q1099.25142,302.39339 1099.25142,312.848583 Q1099.25142,321.18448 1095.577974,326.27079 Q1091.904528,331.3571 1086.535645,333.758969 Q1104.055158,361.733675 1104.055158,361.733675 C1104.055158,361.733675 1092.328387,361.733675 1092.328387,361.733675 C1092.328387,361.733675 1076.645598,335.878265 1076.645598,335.878265 C1076.645598,335.878265 1066.190404,335.878265 1066.190404,335.878265 C1066.190404,335.878265 1066.190404,361.733675 1066.190404,361.733675 C1066.190404,361.733675 1056.017784,361.733675 1056.017784,361.733675 C1056.017784,361.733675 1056.017784,361.733675 1056.017784,361.733675 ZM1066.190404,329.944236C1066.190404,329.944236 1074.526302,329.944236 1074.526302,329.944236 Q1081.166762,329.944236 1084.910852,326.27079 Q1088.654941,322.597344 1088.654941,313.131155 Q1088.654941,304.653972 1084.910852,300.768596 Q1081.166762,296.88322 1073.678583,296.88322 Q1066.190404,296.88322 1066.190404,296.88322 C1066.190404,296.88322 1066.190404,329.944236 1066.190404,329.944236 C1066.190404,329.944236 1066.190404,329.944236 1066.190404,329.944236 Z" fill="#000000"/>
			</g>
		</g>
	</g>
</g></g></svg>